HIERARCHY
ROOT root
{
	OFFSET 0.000000 0.000000 0.000000
	CHANNELS 6 Xposition Yposition Zposition Zrotation Yrotation Xrotation
	JOINT lhip
	{
		OFFSET 0.058581 -0.082280 -0.017664
		CHANNELS 3 Zrotation Yrotation Xrotation
		JOINT lknee
		{
			OFFSET 0.043451 -0.386469 0.008037
			CHANNELS 3 Zrotation Yrotation Xrotation
			JOINT lankle
			{
				OFFSET -0.014790 -0.426874 -0.037428
				CHANNELS 3 Zrotation Yrotation Xrotation
				JOINT ltoe
				{
					OFFSET 0.041054 -0.060286 0.122042
					CHANNELS 3 Zrotation Yrotation Xrotation
					End Site
					{
						OFFSET 0.000000 0.000000 0.000000
					}
				}
			}
		}
	}
	JOINT rhip
	{
		OFFSET -0.060310 -0.090513 -0.013543
		CHANNELS 3 Zrotation Yrotation Xrotation
		JOINT rknee
		{
			OFFSET -0.043257 -0.383688 -0.004843
			CHANNELS 3 Zrotation Yrotation Xrotation
			JOINT rankle
			{
				OFFSET 0.019056 -0.420046 -0.034562
				CHANNELS 3 Zrotation Yrotation Xrotation
				JOINT rtoe
				{
					OFFSET -0.034840 -0.062106 0.130323
					CHANNELS 3 Zrotation Yrotation Xrotation
					End Site
					{
						OFFSET 0.000000 0.000000 0.000000
					}
				}
			}
		}
	}
	JOINT lowerback
	{
		OFFSET 0.004439 0.124404 -0.038385
		CHANNELS 3 Zrotation Yrotation Xrotation
		JOINT upperback
		{
			OFFSET 0.004488 0.137956 0.026820
			CHANNELS 3 Zrotation Yrotation Xrotation
			JOINT chest
			{
				OFFSET -0.002265 0.056032 0.002855
				CHANNELS 3 Zrotation Yrotation Xrotation
				JOINT lowerneck
				{
					OFFSET -0.013390 0.211636 -0.033468
					CHANNELS 3 Zrotation Yrotation Xrotation
					JOINT upperneck
					{
						OFFSET 0.010113 0.088937 0.050410
						CHANNELS 3 Zrotation Yrotation Xrotation
						End Site
						{
							OFFSET 0.000000 0.000000 0.000000
						}
					}
				}
				JOINT lclavicle
				{
					OFFSET 0.071702 0.114000 -0.018898
					CHANNELS 3 Zrotation Yrotation Xrotation
					JOINT lshoulder
					{
						OFFSET 0.122921 0.045205 -0.019046
						CHANNELS 3 Zrotation Yrotation Xrotation
						JOINT lelbow
						{
							OFFSET 0.255332 -0.015649 -0.022946
							CHANNELS 3 Zrotation Yrotation Xrotation
							JOINT lwrist
							{
								OFFSET 0.265709 0.012698 -0.007375
								CHANNELS 3 Zrotation Yrotation Xrotation
								End Site
								{
									OFFSET 0.000000 0.000000 0.000000
								}
							}
						}
					}
				}
				JOINT rclavicle
				{
					OFFSET -0.082954 0.112472 -0.023707
					CHANNELS 3 Zrotation Yrotation Xrotation
					JOINT rshoulder
					{
						OFFSET -0.113228 0.046853 -0.008472
						CHANNELS 3 Zrotation Yrotation Xrotation
						JOINT relbow
						{
							OFFSET -0.260127 -0.014369 -0.031269
							CHANNELS 3 Zrotation Yrotation Xrotation
							JOINT rwrist
							{
								OFFSET -0.269108 0.006794 -0.006027
								CHANNELS 3 Zrotation Yrotation Xrotation
								End Site
								{
									OFFSET 0.000000 0.000000 0.000000
								}
							}
						}
					}
				}
			}
		}
	}
}
MOTION
Frames: 13
Frame Time: 0.033333
-0.425812 3.009238 0.985048 1.832952 1.066791 84.060657 2.900753 6.943590 12.521329 -3.828984 -0.508605 -4.343416 6.145524 12.599059 -11.944468 0.000000 -0.000000 0.000000 -2.158690 -3.024151 -0.974090 0.530838 -3.744199 20.333724 3.753561 -7.408651 -12.397452 0.000000 -0.000000 0.000000 0.227122 -1.384564 4.240651 0.633558 -2.200778 4.726456 -0.555266 -2.571044 3.901440 3.454561 -4.953252 -4.475218 3.368894 -7.751138 -4.609768 -28.798226 -0.159469 4.234690 -59.347362 -6.689318 8.739767 9.578136 -31.378860 10.354946 -3.437117 -2.468331 0.460529 25.025652 3.592149 0.543360 61.034150 1.996193 12.688025 -13.288016 27.961217 -1.949178 6.599199 3.836362 -3.479696 
-0.425834 3.008965 0.985060 1.824576 1.007867 84.044255 2.876605 6.914807 12.679676 -3.911558 -0.617931 -4.574871 6.254749 12.733439 -11.820420 0.000000 -0.000000 0.000000 -2.198934 -2.871744 -0.849960 0.674809 -3.433665 20.203033 4.060903 -7.893815 -12.416463 0.000000 -0.000000 0.000000 0.152210 -1.338042 4.076506 0.630093 -2.264349 4.889223 -0.589938 -2.586662 3.924332 3.381090 -4.948616 -4.504967 3.366275 -7.646622 -4.476088 -28.689226 -0.491308 4.287514 -59.393926 -7.163775 8.861668 9.705208 -31.135912 10.324940 -3.171729 -2.273812 0.381303 24.879202 3.722597 0.624119 61.296843 2.027466 12.823374 -13.502646 27.988666 -2.030374 6.610228 3.743011 -3.674125 
-0.425896 3.008590 0.985159 1.844240 0.979727 83.978317 2.897519 6.984491 12.857642 -3.958010 -0.702307 -4.732925 6.266132 12.705857 -11.786383 0.000000 -0.000000 0.000000 -2.222153 -2.922930 -0.723387 0.641880 -3.409447 20.124829 4.086922 -7.865938 -12.450090 0.000000 -0.000000 0.000000 0.110727 -1.320975 3.978971 0.602972 -2.311897 5.026436 -0.616808 -2.629981 3.960279 3.435670 -4.939063 -4.505592 3.378616 -7.693250 -4.327718 -28.668660 -0.709047 4.155410 -59.286715 -7.505776 8.882777 9.701568 -31.230757 10.159114 -3.016973 -2.288374 0.426800 24.847604 3.763582 0.574259 61.381570 2.033888 12.874032 -13.505516 28.084327 -2.033491 6.617936 3.745578 -3.678259 
-0.425771 3.008768 0.985283 1.874816 0.979077 83.975881 2.877849 6.955752 12.830055 -3.955124 -0.694151 -4.725237 6.276021 12.677765 -11.767223 0.000000 -0.000000 0.000000 -2.225952 -2.908865 -0.736859 0.622078 -3.452534 20.117911 4.113121 -7.867167 -12.431008 0.000000 -0.000000 0.000000 0.113681 -1.369304 4.001135 0.581676 -2.350191 5.001454 -0.657120 -2.653704 3.958049 3.447506 -4.920541 -4.461874 3.383680 -7.677563 -4.226725 -28.687492 -0.788403 4.050409 -59.077100 -7.868577 8.886005 9.675086 -32.076386 10.035624 -2.939964 -2.377171 0.515602 24.801301 3.775387 0.501166 61.450283 1.996111 12.917685 -13.535745 28.311791 -2.081778 6.661462 3.754265 -3.653857 
-0.425650 3.008846 0.985369 1.848693 0.982815 83.972935 2.865760 6.941365 12.813063 -3.945737 -0.663475 -4.707347 6.278835 12.667447 -11.768002 0.000000 -0.000000 0.000000 -2.226748 -2.904335 -0.740887 0.610072 -3.464100 20.110444 4.134832 -7.838635 -12.426953 0.000000 -0.000000 0.000000 0.118041 -1.389684 4.016930 0.579012 -2.360686 4.981074 -0.678334 -2.657946 3.963833 3.479436 -4.913968 -4.424497 3.383058 -7.676660 -4.159692 -28.708285 -0.786609 4.001809 -58.953056 -8.046799 8.903967 9.671553 -32.792170 10.014550 -2.931485 -2.498155 0.586494 24.787112 3.767368 0.465231 61.467437 1.989139 12.925042 -13.578137 28.430772 -2.140540 6.686107 3.765892 -3.618312 
-0.425470 3.008899 0.985463 1.757902 0.990086 83.967270 2.850161 6.924455 12.812033 -3.931135 -0.616188 -4.714456 6.289207 12.695003 -11.757566 0.000000 -0.000000 0.000000 -2.222682 -2.906601 -0.757437 0.595355 -3.436184 20.113439 4.170584 -7.786383 -12.417728 0.000000 -0.000000 0.000000 0.122588 -1.412860 4.039035 0.581064 -2.350016 4.936013 -0.691831 -2.654762 3.971558 3.512462 -4.906626 -4.356845 3.385379 -7.645789 -4.046653 -28.714431 -0.726088 3.956071 -58.887377 -8.234835 8.946102 9.640882 -33.768229 9.897275 -2.727792 -2.619841 0.451087 24.784642 3.748942 0.435111 61.442948 1.995161 12.945212 -13.606188 28.524067 -2.213156 6.665967 3.753497 -3.591560 
-0.425267 3.008911 0.985523 1.623028 0.993125 83.962941 2.829841 6.931986 12.818340 -3.914521 -0.543937 -4.730629 6.301856 12.722178 -11.751090 0.000000 -0.000000 0.000000 -2.219746 -2.892100 -0.786063 0.579501 -3.396153 20.130730 4.209056 -7.731769 -12.413648 0.000000 -0.000000 0.000000 0.127566 -1.442365 4.046634 0.586874 -2.325087 4.893465 -0.712528 -2.636458 3.983223 3.565825 -4.871664 -4.296536 3.360949 -7.611731 -3.898111 -28.733826 -0.631811 3.921236 -58.823277 -8.364211 9.019116 9.593160 -34.686847 9.922401 -2.573960 -2.807977 0.406547 24.802712 3.736726 0.416569 61.395320 2.016538 12.971534 -13.627762 28.536768 -2.265248 6.651377 3.754851 -3.517925 
-0.425075 3.008847 0.985558 1.483854 1.003300 83.951172 2.823715 6.950565 12.842806 -3.903071 -0.483369 -4.751593 6.303493 12.748858 -11.755146 0.000000 -0.000000 0.000000 -2.210154 -2.879867 -0.794338 0.572577 -3.343753 20.125274 4.243281 -7.682481 -12.406194 0.000000 -0.000000 0.000000 0.131568 -1.467838 4.046011 0.602492 -2.307096 4.862856 -0.726597 -2.627407 4.011435 3.633462 -4.837267 -4.274881 3.323463 -7.602711 -3.715012 -28.766135 -0.548052 3.902624 -58.790084 -8.443308 9.115262 9.548595 -35.362385 10.048471 -2.399304 -3.055343 0.392008 24.829121 3.723175 0.394976 61.332122 2.038738 13.002120 -13.638838 28.527474 -2.298197 6.607315 3.777668 -3.457935 
-0.424901 3.008767 0.985583 1.355684 1.019887 83.940020 2.823324 6.963756 12.865493 -3.890523 -0.433740 -4.767680 6.315818 12.788665 -11.757669 0.000000 -0.000000 0.000000 -2.199157 -2.867067 -0.796666 0.572559 -3.305402 20.113416 4.264904 -7.631561 -12.392041 0.000000 -0.000000 0.000000 0.142189 -1.492255 4.047460 0.618799 -2.297935 4.836214 -0.731047 -2.623673 4.028715 3.673073 -4.824668 -4.241040 3.286075 -7.583287 -3.568464 -28.801151 -0.459999 3.877501 -58.826528 -8.518741 9.165525 9.549721 -35.785748 10.084693 -2.326422 -3.114471 0.361918 24.849071 3.683435 0.381438 61.288637 2.047891 13.019752 -13.662008 28.529222 -2.348041 6.585480 3.788207 -3.417366 
-0.424760 3.008676 0.985569 1.232576 1.033159 83.935792 2.825352 6.986264 12.893062 -3.891568 -0.381229 -4.783134 6.333077 12.817751 -11.763582 0.000000 -0.000000 0.000000 -2.191936 -2.842612 -0.808178 0.573490 -3.263652 20.119034 4.277435 -7.585023 -12.384618 0.000000 -0.000000 0.000000 0.143546 -1.523135 4.029593 0.636355 -2.305446 4.823289 -0.731742 -2.639875 4.043353 3.681132 -4.787440 -4.198316 3.240155 -7.541525 -3.439039 -28.842672 -0.396178 3.860923 -58.907160 -8.568361 9.198143 9.553594 -35.880528 10.088114 -2.298589 -3.132564 0.351951 24.876518 3.626372 0.370046 61.272773 2.039698 13.040947 -13.691548 28.528383 -2.400999 6.570954 3.791691 -3.426797 
-0.424659 3.008567 0.985544 1.139636 1.040251 83.934670 2.824612 7.007851 12.919843 -3.894496 -0.352131 -4.798950 6.346736 12.852570 -11.770425 0.000000 -0.000000 0.000000 -2.185139 -2.809021 -0.824460 0.572153 -3.229322 20.138638 4.278939 -7.564696 -12.386969 0.000000 -0.000000 0.000000 0.150546 -1.551347 4.005066 0.641902 -2.321013 4.831452 -0.738561 -2.667822 4.058857 3.675137 -4.749345 -4.185819 3.212741 -7.493754 -3.384080 -28.867703 -0.382728 3.878380 -58.983742 -8.534370 9.211890 9.582096 -35.713091 10.079825 -2.344516 -3.106780 0.349324 24.889645 3.590943 0.362395 61.287853 2.035778 13.050237 -13.694735 28.507697 -2.411014 6.602955 3.772963 -3.461608 
-0.424577 3.008400 0.985516 1.051367 1.043278 83.927720 2.823040 7.040136 12.964311 -3.893469 -0.329789 -4.829065 6.362210 12.880712 -11.775240 0.000000 -0.000000 0.000000 -2.181033 -2.781466 -0.826227 0.571606 -3.192784 20.155071 4.269209 -7.550529 -12.390791 0.000000 -0.000000 0.000000 0.154114 -1.573929 3.973819 0.641730 -2.346107 4.858941 -0.752151 -2.689890 4.064233 3.672156 -4.705869 -4.167177 3.196976 -7.444393 -3.364139 -28.892075 -0.377982 3.916218 -59.045496 -8.443495 9.214960 9.612953 -35.403685 10.084366 -2.405515 -3.046142 0.372905 24.913870 3.559465 0.374145 61.318290 2.036904 13.025950 -13.716146 28.487357 -2.482714 6.663128 3.682597 -3.545608 
-0.424493 3.008088 0.985496 1.031280 1.062556 83.927151 2.845090 7.053416 13.000246 -3.898318 -0.335710 -4.846261 6.369692 12.891532 -11.785423 0.000000 -0.000000 0.000000 -2.168910 -2.814732 -0.785333 0.581647 -3.154988 20.115657 4.243175 -7.547281 -12.395265 0.000000 -0.000000 0.000000 0.168808 -1.581534 3.910487 0.649690 -2.410494 4.906079 -0.757201 -2.731169 4.064707 3.644897 -4.722826 -4.103217 3.199838 -7.404025 -3.403766 -28.929487 -0.349651 3.966294 -59.112549 -8.335481 9.180520 9.653899 -35.036143 10.040757 -2.481805 -2.897916 0.336097 24.931639 3.506626 0.392038 61.338023 1.995771 13.005022 -13.704307 28.454337 -2.449795 6.707544 3.622273 -3.583380 
